<?xml version="1.0" encoding="utf-8"?>
<!-- Generator: Adobe Illustrator 16.0.4, SVG Export Plug-In . SVG Version: 6.00 Build 0)  -->
<!DOCTYPE svg PUBLIC "-//W3C//DTD SVG 1.1//EN" "http://www.w3.org/Graphics/SVG/1.1/DTD/svg11.dtd">
<svg version="1.1" xmlns="http://www.w3.org/2000/svg" xmlns:xlink="http://www.w3.org/1999/xlink" x="0px" y="0px"
	 width="841.89px" height="595.28px" viewBox="0 0 841.89 595.28" enable-background="new 0 0 841.89 595.28" xml:space="preserve">
<g id="Calque_1">
	<path fill="#CC3517" d="M540.894,374.554c0,3.866-3.134,7-7,7H326.534c-3.866,0-7-3.134-7-7V167.194c0-3.866,3.134-7,7-7h207.359
		c3.866,0,7,3.134,7,7V374.554z"/>
	<text transform="matrix(1 0 0 1 332.6406 191.2622)"><tspan x="0" y="0" fill="#FFFFFF" font-family="'DINPro-Bold'" font-size="24">GIP</tspan><tspan x="0" y="28.8" fill="#FFFFFF" font-family="'DINPro-Bold'" font-size="24">ESSENTIALS</tspan></text>
</g>
<g id="Calque_2">
	<g>
		<path fill="#FFFFFF" d="M531.301,282.909c18.324,0.085,31.734,5.12,36.089,15.175c8.921,20.691-23.962,54.808-73.469,76.166
			c-49.501,21.372-96.885,21.906-105.817,1.22c-8.814-20.428,23.108-53.911,71.521-75.327c-0.647,0.279-1.3,0.56-1.944,0.838
			c-54.498,23.514-90.742,60.948-80.955,83.608c9.775,22.659,61.876,21.945,116.355-1.568c54.484-23.526,90.746-60.945,80.95-83.605
			C569.039,287.846,553.023,282.378,531.301,282.909z"/>
		<polygon fill="#FFFFFF" points="430.095,347.994 473.165,404.658 555.628,239.884 554.408,240.497 		"/>
		<polygon fill="#FFFFFF" points="375.13,313.418 430.123,347.549 430.095,347.994 554.408,240.497 		"/>
	</g>
</g>
</svg>
